<svg width="24" height="24" viewBox="0 0 24 24" fill="none" xmlns="http://www.w3.org/2000/svg">
<path d="M12.001 0C5.37595 0 0.00795313 5.369 0.00395313 11.992H0.00195312V21.279H0.00395313C0.00527762 22.0011 0.293065 22.6932 0.804146 23.2033C1.31523 23.7135 2.00784 24 2.72995 24H12.005C18.631 23.996 23.998 18.628 23.998 12.003C23.998 5.375 18.628 0 12 0H12.001ZM14.432 4.94C16.447 4.94 18.349 6.483 18.349 8.611C18.349 8.808 18.35 9.006 18.319 9.23C18.3056 9.36437 18.2652 9.49466 18.2002 9.61303C18.1352 9.73141 18.047 9.83542 17.9408 9.91883C17.8346 10.0022 17.7126 10.0633 17.5822 10.0984C17.4518 10.1335 17.3157 10.1419 17.182 10.123C17.0483 10.1037 16.92 10.0576 16.8046 9.9875C16.6892 9.91738 16.5892 9.82466 16.5106 9.71492C16.4319 9.60517 16.3763 9.48067 16.347 9.34888C16.3176 9.21709 16.3153 9.08073 16.34 8.948C16.3515 8.83606 16.3559 8.7235 16.353 8.611C16.353 7.404 15.366 6.939 14.433 6.939C13.499 6.939 12.658 7.723 12.656 8.611C12.672 9.638 12.656 10.657 12.656 11.681L14.388 11.669C15.74 11.641 15.756 13.678 14.404 13.667L12.656 13.68C12.652 14.506 12.662 14.357 12.658 14.773C12.658 14.773 12.673 15.783 12.642 16.549C12.433 18.799 10.518 20.595 8.21795 20.595C5.77995 20.595 3.76995 18.602 3.76995 16.158C3.84295 13.643 5.84795 11.666 8.37295 11.689L9.78195 11.679V13.675L8.37295 13.688H8.36595C6.97795 13.728 5.78895 14.672 5.76595 16.158C5.76582 16.4794 5.82924 16.7977 5.95258 17.0945C6.07591 17.3914 6.25673 17.6609 6.48461 17.8875C6.7125 18.1142 6.98296 18.2936 7.28044 18.4154C7.57791 18.5371 7.89653 18.5988 8.21795 18.597C9.57395 18.597 10.659 17.61 10.659 16.16L10.658 8.603C10.658 8.463 10.663 8.351 10.678 8.196C10.908 6.348 12.561 4.94 14.432 4.94V4.94Z" fill="white"/>
</svg>
