<svg xmlns="http://www.w3.org/2000/svg" width="13" height="16" fill="none" viewBox="0 0 13 16"><path fill="#fff" d="M8.08004 3.68105C8.14525 3.29963 8.29533 2.93774 8.51917 2.62211C8.74302 2.30648 9.03492 2.04518 9.37332 1.8575C9.71171 1.66983 10.0879 1.56058 10.4742 1.53782C10.8605 1.51507 11.247 1.5794 11.605 1.72605L11.966 1.87405C12.1502 1.94937 12.3568 1.94844 12.5403 1.87145C12.7238 1.79447 12.8692 1.64774 12.9445 1.46355C13.0199 1.27936 13.0189 1.07279 12.9419 0.889283C12.865 0.705779 12.7182 0.560372 12.534 0.48505L12.174 0.338051C11.608 0.106242 10.9972 0.00455641 10.3866 0.0405068C9.77603 0.0764571 9.18132 0.249124 8.64643 0.545753C8.11154 0.842382 7.65013 1.25539 7.29627 1.75428C6.94242 2.25316 6.70517 2.82517 6.60204 3.42805L5.99104 7.00005H2.75004C2.55113 7.00005 2.36037 7.07907 2.21971 7.21972C2.07906 7.36037 2.00004 7.55114 2.00004 7.75005C2.00004 7.94896 2.07906 8.13973 2.21971 8.28038C2.36037 8.42103 2.55113 8.50005 2.75004 8.50005H5.73404L5.22704 11.4621C4.91704 13.2751 2.86404 14.1921 1.30704 13.2131L1.14904 13.1151C0.980688 13.0119 0.778466 12.9794 0.586248 13.0244C0.39403 13.0694 0.227321 13.1884 0.122285 13.3556C0.0172494 13.5228 -0.0176401 13.7246 0.0251852 13.9173C0.0680106 14.11 0.185097 14.2781 0.351043 14.3851L0.508043 14.4831C2.97004 16.0311 6.21504 14.5811 6.70604 11.7151L7.25604 8.50005H10.25C10.449 8.50005 10.6397 8.42103 10.7804 8.28038C10.921 8.13973 11 7.94896 11 7.75005C11 7.55114 10.921 7.36037 10.7804 7.21972C10.6397 7.07907 10.449 7.00005 10.25 7.00005H7.51304L8.08104 3.68105H8.08004Z"/></svg>